<?xml version="1.0" encoding="UTF-8"?>
<svg id="Layer_1" xmlns="http://www.w3.org/2000/svg" version="1.1" viewBox="0 0 315 95.9999924">
  <!-- Generator: Adobe Illustrator 29.1.0, SVG Export Plug-In . SVG Version: 2.1.0 Build 142)  -->
  <defs>
    <style>
      .st0 {
        fill: #3dae2b;
      }

      .st1 {
        fill: #00b2e3;
      }

      .st2 {
        fill: #93d500;
      }

      .st3 {
        fill: #0082ca;
      }

      .st4 {
        fill: #1D2939;
      }
    </style>
  </defs>
  <g>
    <g>
      <path class="st3" d="M6.4671867,60.5c2.7999992,3,6.1000004,5.5,9.7999992,6.5,11.0999975,3,20.5999975-4.0999985,20.5999975-4.0999985,0,0-10.2999992-6.0999985-15.2000008-13.2000008-1.2000008-1.7999992-2.2999992-3.4000015-3.2999992-4.7999992-5.9999971,4.6999969-10.9999971,13.7999954-11.8999968,15.5999985Z"/>
      <path class="st1" d="M36.1671865,0c-2.9000015,5.6000004-5,9.6000004-11.0999985,15.6000004-3.4000015,3.3999996-11.7999983,7.8999996-17.7999983,14.1000004-3.1000006,3.2000008-5.6000005,6.7999992-6.5000002,10.7999992-1.6000004,7.5999985,1.2000007,14.1999969,3.6000006,17.6999969.7000008,1,1.2999992,1.5999985,2,2.3000031,1-1.8000031,5.8999996-10.9000015,12.000001-15.5999985h.0999985c8-6.2000008,12.5-9.5,14.2999992-11.2000008,3.5-3.2000008,8.3999977-6.4000015,10.2999992-15.6000004,1.9999962-9.1000004-6.9000015-18.1000004-6.9000015-18.1000004Z"/>
    </g>
    <g>
      <path class="st0" d="M63.8671835,35.5c-2.8000031-3-6.0999985-5.5-9.8000031-6.5-11.0999985-3-20.5999985,4.0999985-20.5999985,4.0999985,0,0,10.3000031,6.1000023,15.2000046,13.2000008,1.1999969,1.7999992,2.3000031,3.4000015,3.3000031,4.7999992,5.9999924-4.7999992,10.9999924-13.7999992,11.8999939-15.5999985Z"/>
      <path class="st2" d="M65.8671835,37.7999992c-.6999969-1-1.3000031-1.5999985-2-2.2999992-1,1.7999992-5.9000015,10.9000015-12,15.5999985h-.0999985c-8,6.1999969-12.5,9.5-14.2999992,11.1999969-3.5,3.1999969-8.3999977,6.4000015-10.2999992,15.5999985-1.9000015,9,6.9000015,18.0999985,6.9000015,18.0999985,2.9000015-5.5999985,5-9.5999985,11.0999985-15.5999985,3.4000015-3.4000015,11.8000031-7.9000015,17.7999954-14.0999985,3.0999985-3.1999969,5.5999985-6.8000031,6.5-10.8000031,1.6000061-7.5999908-1.1999969-14.1999931-3.5999985-17.6999931Z"/>
    </g>
  </g>
  <g>
    <path class="st4" d="M111.6671789,29l-1.8000031,2c-2.6999969-2.2999992-5-3.4000015-8.5-3.4000015-7.4000015,0-13.4000015,5.7000008-13.4000015,21.7999992,0,15.2999992,5.8000031,21.7000008,13.3000031,21.7000008,4.3000031,0,6.6999969-1.6999969,9.0000076-3.8000031l1.8999939,2.0999985c-2.5999985,2.6999969-6,4.8000031-10.9000015,4.8000031-9.5,0-16.7000046-8.0999985-16.7000046-24.7000008,0-17.1000023,7.5-24.6000023,16.6999969-24.6000023,4.5000153-.1999931,7.5000153,1.4000053,10.4000092,4.1000061Z"/>
    <path class="st4" d="M138.3671987,71.8000031l-.6999969,2.1999969c-2.8999939-.8000031-4.3000031-2.5-4.6000061-6.1999969-2.3000031,4.0999985-5.5000076,6.1999969-9.8000107,6.1999969-6.1000061,0-9.8000031-4.4000015-9.8000031-10.9000015,0-7.5999985,5-11.7000008,13.3999939-11.7000008h5.7000046v-4.2999992c0-5.5-2-8.4000015-7.1000137-8.4000015-2.8999939,0-5.6999969.7999992-8.8000031,2.0999985l-.8000031-2.4000015c3.3000031-1.5,6.3999939-2.4000015,9.8000031-2.4000015,6.9000015,0,10.1000137,4,10.1000137,10.9000015v19.4000015c.1000214,3.4000015.9000092,4.7000046,2.6000214,5.5000076ZM132.6671865,64.4000015v-10.5h-5.4000015c-6.8999939,0-10.3999939,3-10.3999939,9.1999969,0,5.5,2.6999969,8.3000031,6.8999939,8.3000031s7.0000076-2.5999985,8.9000015-7Z"/>
    <path class="st4" d="M160.3671987,36.5l-.6000061,2.9000015c-.8000031-.2000008-1.6999969-.4000015-2.6999969-.4000015-4.5,0-6.8999939,3.7999992-8.6999969,11.0999985v23.2000046h-3.1999969v-36.6000023h2.6999969l.1999969,7.9000015c1.8000031-5.7999992,4.6000061-8.6000023,9.1000061-8.6000023,1.4999847,0,2.4999847.2999992,3.1999969.5Z"/>
    <path class="st4" d="M186.1671865,56.4000015h-21.3000031c.3000031,10.9000015,4.5,14.8000031,10.1000061,14.8000031,3.6000061,0,5.8999939-1.3000031,8.5-3.5999985l1.5,1.9000015c-2.8999939,2.8000031-6,4.5-10.1999969,4.5-8.1000061,0-13.3000031-6.4000015-13.3000031-18.7999954s5-19.2999992,12.6999969-19.2999992c7.8000031,0,12,6.4000015,12,17.4999962.1000061,1.2999878.1000061,2.2999878,0,2.9999924ZM183.1671865,52.5c0-8.7999992-2.8000031-13.7000008-8.8999939-13.7000008-5.1000061,0-9.1999969,4-9.5,15.1000023h18.3000031v-1.4000015h.0999908Z"/>
    <path class="st4" d="M217.7671926,39.5999985c0,10.4000015-6.3999939,14.5999985-16.8000031,14.5999985h-4.6000061v19h-3.1999969V25.4000015h8c11,0,16.6000061,4.5999985,16.6000061,14.1999969ZM214.3671987,39.7000008c0-8.2999992-4.3000031-11.5-13.1999969-11.5h-4.8000031v23.2000008h4.6999969c8.3999939,0,13.3000031-2.8000031,13.3000031-11.7000008Z"/>
    <path class="st4" d="M247.1671865,54.9000015c0,12.4000015-5.1000061,19.2000046-13.1999969,19.2000046-8.1999969,0-13.1999969-6.8000031-13.1999969-19,0-12.5,5.1999969-19,13.1999969-19,8.1999969-.1000061,13.1999969,6.1999931,13.1999969,18.7999954ZM224.0671957,55.0999985c0,11.0999985,3.6999969,16.2000046,9.8999939,16.2000046s9.9000092-5,9.9000092-16.4000015c0-11.0999985-3.6000061-16.0999985-9.8999939-16.0999985-6.1000061-.0000038-9.9000092,4.8999977-9.9000092,16.2999954Z"/>
    <path class="st4" d="M257.9671896,23.7000008c0,1.2999992-.8999939,2.4000015-2.3999786,2.4000015-1.3999939,0-2.3999939-1.0999985-2.3999939-2.4000015,0-1.2999992,1-2.4000015,2.3999939-2.4000015,1.4999542,0,2.3999786,1.1000023,2.3999786,2.4000015ZM257.1671713,73.3000031h-3.1999969v-36.6000023h3.1999969v36.6000023Z"/>
    <path class="st4" d="M288.2671774,47.2000008v25.9999962h-3.2000122v-25.4999962c0-6.2000008-2-9-6-9-4.2999878,0-7.3999939,3.2999992-10.2000122,8.1000023v26.5h-3.0999756v-36.6000023h2.7000122l.2999878,6.5999985c2.7000122-4.2999992,5.8999939-7.2999992,10.8999939-7.2999992,5.6000061,0,8.6000061,4.0999985,8.6000061,11.2000008Z"/>
    <path class="st4" d="M311.5671652,71.8000031c-1.7999878,1.4000015-4,2.1999969-6.6000061,2.1999969-4.7000122,0-7.6000061-3.0999985-7.6000061-8.3000031v-26.2999954h-5.2000122v-2.7000008h5.2000122v-8.8999977l3.2000122-.4000015v9.2000008h8.2999878l-.3999939,2.7000008h-7.7999878v26.3000031c0,3.5,1.5,5.5999985,4.7999878,5.5999985,1.8999939,0,3.3999939-.5999985,4.8999939-1.5l1.2000122,2.0999985Z"/>
  </g>
</svg>